<svg xmlns="http://www.w3.org/2000/svg" viewBox="0 0 1440 820" role="img" aria-labelledby="title desc">
  <title id="title">CombatGlass development interface mockup</title>
  <desc id="desc">A dark, restrained combat overlay with four synthetic players and a separate analysis panel</desc>
  <defs>
    <linearGradient id="bg" x1="0" y1="0" x2="1440" y2="820"><stop stop-color="#08111D"/><stop offset="1" stop-color="#0C1825"/></linearGradient>
    <linearGradient id="shine" x1="0" y1="0" x2="1" y2="1"><stop stop-color="#8EF4E8" stop-opacity=".7"/><stop offset="1" stop-color="#2D8E9B" stop-opacity="0"/></linearGradient>
    <filter id="shadow"><feDropShadow dx="0" dy="20" stdDeviation="24" flood-color="#000" flood-opacity=".42"/></filter>
  </defs>
  <rect width="1440" height="820" fill="url(#bg)"/>
  <circle cx="1180" cy="80" r="360" fill="#39CFC2" opacity=".055"/>
  <circle cx="210" cy="790" r="330" fill="#2787A0" opacity=".06"/>
  <g filter="url(#shadow)">
    <rect x="100" y="110" width="560" height="592" rx="22" fill="#101A28" stroke="#273B4E"/>
    <rect x="100" y="110" width="560" height="74" rx="22" fill="#142233"/>
    <path d="M100 162h560v22H100z" fill="#142233"/>
    <path d="M132 133h20l9 10v18l-10 10h-19l-10-10v-18l10-10Z" fill="none" stroke="#67E4D7" stroke-width="2"/>
    <path d="M125 154h8l4-8 6 14 4-9h10" fill="none" stroke="#8EF4E8" stroke-width="2" stroke-linecap="round"/>
    <text x="174" y="151" fill="#EAF2F8" font-family="Segoe UI,Arial" font-size="18" font-weight="700" letter-spacing="1.5">COMBATGLASS</text>
    <text x="174" y="169" fill="#8295A9" font-family="Segoe UI,Arial" font-size="10" letter-spacing="1.2">SYNTHETIC DEMO</text>
    <rect x="504" y="132" width="124" height="28" rx="14" fill="#173C3D"/>
    <circle cx="522" cy="146" r="4" fill="#65E2C5"/>
    <text x="534" y="150" fill="#86EADA" font-family="Segoe UI,Arial" font-size="10" font-weight="700">COMBAT ACTIVE</text>
    <text x="132" y="224" fill="#7F93A9" font-family="Segoe UI,Arial" font-size="11" letter-spacing="1.4">TRAINING SENTINEL</text>
    <text x="132" y="253" fill="#EFF6FA" font-family="Segoe UI,Arial" font-size="22" font-weight="600">Synthetic encounter</text>
    <text x="610" y="244" fill="#EFF6FA" font-family="Consolas,monospace" font-size="25" text-anchor="end">02:14</text>
    <g font-family="Segoe UI,Arial">
      <rect x="126" y="286" width="508" height="76" rx="10" fill="#18283A"/><rect x="126" y="286" width="508" height="76" rx="10" fill="#2BB8B0" opacity=".19"/>
      <text x="146" y="317" fill="#F2F7FA" font-size="16" font-weight="600">01  Astra</text><text x="174" y="341" fill="#8498AC" font-size="11">35.8% contribution</text><text x="496" y="318" fill="#70E8DB" font-family="Consolas" font-size="17" text-anchor="end">189.4k</text><text x="612" y="318" fill="#EDF5F8" font-family="Consolas" font-size="15" text-anchor="end">25.4m</text><text x="496" y="342" fill="#748A9E" font-size="9" text-anchor="end">DPS</text><text x="612" y="342" fill="#748A9E" font-size="9" text-anchor="end">DAMAGE</text>
      <rect x="126" y="372" width="508" height="76" rx="10" fill="#18283A"/><rect x="126" y="372" width="404" height="76" rx="10" fill="#308899" opacity=".16"/>
      <text x="146" y="403" fill="#F2F7FA" font-size="16" font-weight="600">02  Kestrel</text><text x="174" y="427" fill="#8498AC" font-size="11">28.3% contribution</text><text x="496" y="404" fill="#70E8DB" font-family="Consolas" font-size="17" text-anchor="end">149.8k</text><text x="612" y="404" fill="#EDF5F8" font-family="Consolas" font-size="15" text-anchor="end">20.1m</text>
      <rect x="126" y="458" width="508" height="76" rx="10" fill="#18283A"/><rect x="126" y="458" width="303" height="76" rx="10" fill="#496BA3" opacity=".16"/>
      <text x="146" y="489" fill="#F2F7FA" font-size="16" font-weight="600">03  Morrow</text><text x="174" y="513" fill="#8498AC" font-size="11">21.4% contribution</text><text x="496" y="490" fill="#70E8DB" font-family="Consolas" font-size="17" text-anchor="end">113.1k</text><text x="612" y="490" fill="#EDF5F8" font-family="Consolas" font-size="15" text-anchor="end">15.2m</text>
      <rect x="126" y="544" width="508" height="76" rx="10" fill="#18283A"/><rect x="126" y="544" width="205" height="76" rx="10" fill="#8B6AA6" opacity=".14"/>
      <text x="146" y="575" fill="#F2F7FA" font-size="16" font-weight="600">04  Vale</text><text x="174" y="599" fill="#8498AC" font-size="11">14.5% contribution</text><text x="496" y="576" fill="#70E8DB" font-family="Consolas" font-size="17" text-anchor="end">76.7k</text><text x="612" y="576" fill="#EDF5F8" font-family="Consolas" font-size="15" text-anchor="end">10.3m</text>
    </g>
    <rect x="710" y="184" width="630" height="480" rx="22" fill="#101A28" stroke="#273B4E"/>
    <text x="746" y="232" fill="#EDF5F8" font-family="Segoe UI,Arial" font-size="22" font-weight="650">Astra</text>
    <text x="746" y="256" fill="#8295A9" font-family="Segoe UI,Arial" font-size="11" letter-spacing="1.2">VERIFIED METRICS ONLY · SYNTHETIC</text>
    <g font-family="Segoe UI,Arial"><rect x="746" y="286" width="162" height="78" rx="10" fill="#18283A"/><text x="762" y="312" fill="#7F93A9" font-size="9" letter-spacing="1">TOTAL DAMAGE</text><text x="762" y="346" fill="#F0F6F9" font-size="23" font-weight="650">25.4m</text><rect x="920" y="286" width="162" height="78" rx="10" fill="#18283A"/><text x="936" y="312" fill="#7F93A9" font-size="9" letter-spacing="1">DPS</text><text x="936" y="346" fill="#72E8DC" font-size="23" font-weight="650">189.4k</text><rect x="1094" y="286" width="210" height="78" rx="10" fill="#18283A"/><text x="1110" y="312" fill="#7F93A9" font-size="9" letter-spacing="1">PERFECT RATE</text><text x="1110" y="346" fill="#F0F6F9" font-size="19" font-weight="600">Unavailable</text></g>
    <rect x="746" y="390" width="558" height="230" rx="12" fill="#131F2E"/>
    <text x="770" y="424" fill="#DCE8EE" font-family="Segoe UI,Arial" font-size="14" font-weight="600">Damage timeline</text>
    <path d="M770 575H1280M770 525H1280M770 475H1280" stroke="#2A3A4A" stroke-width="1"/>
    <path d="M772 570C820 560 825 515 870 530s61-78 105-39 56 55 91 2 44-39 73-2 48-18 67-51 45 58 74 19" fill="none" stroke="#67E4D7" stroke-width="3" stroke-linecap="round"/>
    <path d="M772 570C820 560 825 515 870 530s61-78 105-39 56 55 91 2 44-39 73-2 48-18 67-51 45 58 74 19V596H772Z" fill="url(#shine)" opacity=".22"/>
  </g>
  <text x="720" y="762" fill="#6F8499" font-family="Segoe UI,Arial" font-size="12" text-anchor="middle" letter-spacing="1.2">ORIGINAL INTERFACE MOCKUP · LIVE GAME DATA NOT SHOWN</text>
</svg>

